<svg viewBox="0 0 366 88" xmlns="http://www.w3.org/2000/svg"><g fill-rule="nonzero" fill="none"><g fill="#FFF"><path d="M9.446 66.848V49.652l4.682-5.489 18.084 22.685h11.625L20.344 38.431 42.223 13H30.517L9.446 38.673V13H0v53.848zM74.812 67.817c15.58 0 23.25-8.88 23.25-22.282V13h-9.526v32.293c0 8.557-4.763 14.128-13.724 14.128-9.042 0-13.806-5.57-13.806-14.128V13H51.48v32.616c0 13.24 7.67 22.201 23.332 22.201ZM105.854 88c10.415 0 18.165-5.732 18.165-18.003V13h-9.446v56.835c0 5.894-3.633 9.769-9.445 9.769-4.118 0-7.024-2.1-9.204-4.44l-4.36 7.185c3.795 4.036 8.72 5.651 14.29 5.651ZM149.974 66.848V13h-9.445v53.848zM190.138 13c10.657 0 17.6 6.943 17.6 16.873 0 9.607-6.297 14.774-12.756 15.823l13.16 21.152h-10.9l-11.948-20.102h-9.364v20.102h-9.446V13Zm-1.291 8.315H175.93v17.116h12.917c5.328 0 9.203-3.391 9.203-8.558s-3.875-8.558-9.203-8.558ZM249.517 13l21.152 53.848H259.93l-3.956-10.333h-24.704l-3.956 10.333h-10.737L237.73 13h11.787Zm-5.894 9.526L233.936 48.2h19.375l-9.688-25.673Z"></path></g><path d="M325.169 0c22.09 0 40 17.909 40 40s-17.91 40-40 40c-22.092 0-40-17.909-40-40s17.908-40 40-40Zm0 3.733c-20.03 0-36.267 16.237-36.267 36.267 0 20.03 16.237 36.267 36.267 36.267 20.03 0 36.266-16.237 36.266-36.267 0-20.03-16.237-36.267-36.266-36.267Z" fill="#E53935"></path><path d="M348.697 25.287v-3.391h-10.742c-.577-2.192-1.153-4.122-1.782-5.896l-3.616.626a61.122 61.122 0 0 1 1.834 5.27h-11.37v3.391h25.676Zm-27.511 25.2V28.835h-5.293c1.1-1.618 2.201-3.6 3.302-6V20.33h-8.647c.472-1.043.891-2.087 1.31-3.182l-3.353-1.044c-1.572 5.113-4.035 9.235-7.336 12.418l.786 3.704c.68-.626 1.362-1.252 1.99-1.93v20.191h17.241Zm-8.908-21.652h-7.022a43.064 43.064 0 0 0 3.825-5.53h6.603c-1.153 2.086-2.253 3.965-3.406 5.53ZM333.868 64c2.62 0 3.982-1.46 3.982-4.33V44.8h8.332V29.983h-20.385V44.8h8.385v13.983c0 1.304-.524 1.982-1.572 1.982-1.206 0-2.463-.104-3.72-.26l.733 3.495h4.244Zm-22.796-25.878h-3.877v-6.209h3.877v6.209Zm6.865 0h-3.825v-6.209h3.825v6.209Zm24.681 3.391h-13.257v-8.191h13.257v8.191Zm-24.68 5.844h-3.826v-6.21h3.825v6.21Zm-6.866 0h-3.877v-6.21h3.877v6.21Zm35.32 14.243 2.777-1.93c-1.415-3.34-3.407-7.2-6.027-11.635l-2.777 1.67c2.515 4.33 4.559 8.295 6.026 11.895Zm-21.957.887c2.306-3.6 4.297-7.878 5.974-12.783l-3.04-1.46c-1.624 4.695-3.563 8.765-5.764 12.208l2.83 2.035Zm-4.35-3.548 2.568-.626c-.733-2.504-1.467-4.696-2.305-6.574l-2.463.73a62.595 62.595 0 0 1 2.2 6.47Zm-5.554 3.026 2.725-.313c-.315-3.965-.89-7.095-1.73-9.391l-2.62.313c.839 2.191 1.363 5.322 1.625 9.391Zm-10.009 1.409c1.1-3.078 1.782-6.574 2.096-10.54l-2.83-.364c-.261 3.756-.995 7.095-2.148 10.017l2.882.887Zm4.402-.626 2.725-.313c-.105-4.122-.367-7.409-.734-9.809l-2.515.313c.262 2.296.42 5.583.524 9.809Z" fill="#E53935"></path></g></svg>